<?xml version="1.0" standalone="no"?>
<!DOCTYPE svg PUBLIC "-//W3C//DTD SVG 20010904//EN"
 "http://www.w3.org/TR/2001/REC-SVG-20010904/DTD/svg10.dtd">
<svg version="1.0" xmlns="http://www.w3.org/2000/svg"
 width="758.000000pt" height="442.000000pt" viewBox="0 0 758.000000 442.000000"
 preserveAspectRatio="xMidYMid meet">

<g transform="translate(0.000000,442.000000) scale(0.100000,-0.100000)"
fill="#000000" stroke="none">
<path d="M1084 3270 c-106 -73 -135 -147 -99 -250 19 -55 19 -123 0 -163 -9
-18 -79 -108 -156 -202 -183 -222 -219 -297 -219 -455 0 -146 48 -260 154
-366 111 -110 223 -154 396 -154 54 0 122 7 155 15 252 66 425 316 387 560 -9
58 -53 188 -68 204 -3 3 -24 -16 -48 -42 -51 -56 -91 -63 -131 -22 -34 33 -31
68 8 129 29 46 32 58 32 127 0 66 -3 81 -29 119 l-28 43 -19 -42 c-13 -30 -28
-46 -55 -57 -20 -8 -38 -13 -41 -11 -2 3 -6 38 -8 78 -5 88 -22 142 -75 229
-46 77 -70 161 -70 247 0 35 -3 63 -7 62 -5 0 -40 -22 -79 -49z m161 -680 c78
-159 85 -189 65 -260 -5 -20 -21 -51 -35 -70 -40 -54 -31 -110 22 -138 39 -21
63 -13 119 40 30 28 58 48 62 44 4 -4 7 -44 7 -89 -1 -66 -6 -93 -26 -137 -58
-125 -141 -181 -280 -188 -152 -8 -248 40 -303 150 -22 43 -26 66 -26 134 0
117 27 165 149 265 51 41 101 89 113 107 19 30 29 85 43 235 4 38 9 67 11 64
2 -2 38 -73 79 -157z"/>
<path d="M637 3094 c-13 -13 -7 -81 8 -94 25 -21 47 6 43 54 -2 32 -7 42 -23
44 -12 2 -24 0 -28 -4z"/>
<path d="M1664 3056 c-3 -7 -4 -35 -2 -62 2 -38 7 -50 22 -52 10 -2 22 2 27
10 10 15 12 79 3 102 -8 20 -43 21 -50 2z"/>
<path d="M754 2977 c-3 -8 -4 -32 -2 -53 2 -31 7 -39 23 -39 17 0 20 7 20 50
0 39 -4 50 -18 53 -9 2 -20 -3 -23 -11z"/>
<path d="M1647 2753 c-11 -10 -8 -91 3 -98 28 -17 51 44 34 89 -6 16 -26 21
-37 9z"/>
</g>
</svg>
